<svg xmlns="http://www.w3.org/2000/svg" viewBox="90 2 345 345" fill="#5f875f">
  <path d="M 168 72 L 177 72 L 184 75 L 256 110 L 263 108 L 268 104 L 290 99 L 294 107 L 293 114 L 275 121 L 291 129 L 296 129 L 305 124 L 318 120 L 324 120 L 328 126 L 327 135 L 311 141 L 325 148 L 347 147 L 365 139 L 388 133 L 406 134 L 426 144 L 428 148 L 426 154 L 407 171 L 393 178 L 351 190 L 353 197 L 378 189 L 382 190 L 385 196 L 385 203 L 383 205 L 364 211 L 360 209 L 356 211 L 360 225 L 383 218 L 387 221 L 389 226 L 389 232 L 387 234 L 370 239 L 362 239 L 370 264 L 371 273 L 355 277 L 336 246 L 319 250 L 328 242 L 326 238 L 324 237 L 310 240 L 321 231 L 320 226 L 315 225 L 302 228 L 315 217 L 310 208 L 280 217 L 275 217 L 272 215 L 261 218 L 250 218 L 152 206 L 150 201 L 153 198 L 163 194 L 164 191 L 147 155 L 144 152 L 136 152 L 150 145 L 97 113 L 107 109 L 115 110 L 171 133 L 175 134 L 182 131 L 188 131 L 190 133 L 188 146 L 205 178 L 208 180 L 258 174 L 270 168 L 264 163 L 248 167 L 258 158 L 242 146 L 225 150 L 236 141 L 224 132 L 208 136 L 218 127 L 210 121 L 204 120 L 191 123 L 200 117 L 198 113 L 207 109 L 157 77 L 167 73 Z"/>
</svg>
